<svg width="149" height="72" viewBox="0 0 149 72" fill="none" xmlns="http://www.w3.org/2000/svg">
<path d="M11.3242 23.1602V55H0.896484V14.8477H10.6934L11.3242 23.1602ZM9.83984 33.5508L6.98242 33.625C6.93294 30.8047 7.18034 28.207 7.72461 25.832C8.26888 23.457 9.08529 21.3913 10.1738 19.6348C11.2871 17.8783 12.6849 16.5176 14.3672 15.5527C16.0495 14.5879 18.0163 14.1055 20.2676 14.1055C21.7272 14.1055 23.0755 14.3776 24.3125 14.9219C25.5495 15.4414 26.6257 16.2702 27.541 17.4082C28.4564 18.5215 29.1615 19.9811 29.6562 21.7871C30.151 23.5684 30.3984 25.7083 30.3984 28.207V55H20.0078V29.4688C20.0078 27.6875 19.8346 26.3268 19.4883 25.3867C19.1419 24.4219 18.6471 23.7539 18.0039 23.3828C17.3607 22.987 16.569 22.7891 15.6289 22.7891C14.6393 22.7891 13.7734 23.0612 13.0312 23.6055C12.2891 24.1497 11.6829 24.9167 11.2129 25.9062C10.7676 26.8711 10.4212 28.0091 10.1738 29.3203C9.95117 30.6315 9.83984 32.0417 9.83984 33.5508ZM29.3965 32.5117L25.6484 32.9941C25.599 30.347 25.834 27.8854 26.3535 25.6094C26.873 23.3086 27.6771 21.3047 28.7656 19.5977C29.8542 17.8659 31.2148 16.5176 32.8477 15.5527C34.5052 14.5879 36.4225 14.1055 38.5996 14.1055C40.2324 14.1055 41.7168 14.3776 43.0527 14.9219C44.3887 15.4661 45.5267 16.3444 46.4668 17.5566C47.4316 18.7441 48.1615 20.3151 48.6562 22.2695C49.1758 24.224 49.4355 26.599 49.4355 29.3945V55H39.0078V29.4316C39.0078 27.6257 38.8346 26.2402 38.4883 25.2754C38.1419 24.3105 37.6471 23.6549 37.0039 23.3086C36.3607 22.9622 35.5938 22.7891 34.7031 22.7891C33.8125 22.7891 33.0332 23.0365 32.3652 23.5312C31.722 24.026 31.1777 24.7188 30.7324 25.6094C30.2871 26.4753 29.9531 27.502 29.7305 28.6895C29.5078 29.8522 29.3965 31.1263 29.3965 32.5117ZM67.3594 50.3984L75.7461 14.8477H86.582L73.3711 61.0117C73.0742 62.026 72.666 63.1146 72.1465 64.2773C71.627 65.4648 70.9342 66.5781 70.0684 67.6172C69.2272 68.681 68.1634 69.5469 66.877 70.2148C65.5905 70.8828 64.0443 71.2168 62.2383 71.2168C61.3229 71.2168 60.5807 71.1549 60.0117 71.0312C59.4674 70.9323 58.7747 70.7591 57.9336 70.5117V62.4219C58.1562 62.4219 58.3665 62.4219 58.5645 62.4219C58.7871 62.4466 58.9974 62.459 59.1953 62.459C60.3581 62.459 61.2858 62.2982 61.9785 61.9766C62.6712 61.6797 63.2279 61.2096 63.6484 60.5664C64.0938 59.9232 64.4648 59.1191 64.7617 58.1543L67.3594 50.3984ZM65.207 14.8477L71.4414 43.6445L72.8516 55.3711L65.8379 56.0391L54.0742 14.8477H65.207ZM128.33 26.6113V48.877C127.563 49.6934 126.438 50.6458 124.953 51.7344C123.493 52.7982 121.576 53.7383 119.201 54.5547C116.851 55.3464 113.981 55.7422 110.592 55.7422C107.598 55.7422 104.877 55.2721 102.428 54.332C100.003 53.3919 97.9128 51.9694 96.1562 50.0645C94.4245 48.1348 93.1009 45.735 92.1855 42.8652C91.2702 39.9707 90.8125 36.5443 90.8125 32.5859V23.3828C90.8125 19.474 91.2454 16.0723 92.1113 13.1777C93.002 10.2585 94.2884 7.83398 95.9707 5.9043C97.653 3.97461 99.6569 2.53971 101.982 1.59961C104.333 0.659505 106.98 0.189453 109.924 0.189453C113.981 0.189453 117.309 0.869792 119.906 2.23047C122.529 3.59115 124.508 5.60742 125.844 8.2793C127.204 10.9512 128.021 14.2292 128.293 18.1133H117.791C117.618 15.8372 117.234 14.056 116.641 12.7695C116.072 11.4831 115.268 10.5677 114.229 10.0234C113.189 9.45443 111.841 9.16992 110.184 9.16992C108.749 9.16992 107.499 9.42969 106.436 9.94922C105.372 10.444 104.481 11.2604 103.764 12.3984C103.046 13.5365 102.514 14.9961 102.168 16.7773C101.822 18.5586 101.648 20.7357 101.648 23.3086V32.5859C101.648 35.1341 101.846 37.3112 102.242 39.1172C102.638 40.9232 103.219 42.3952 103.986 43.5332C104.778 44.6712 105.768 45.5 106.955 46.0195C108.167 46.5143 109.59 46.7617 111.223 46.7617C112.534 46.7617 113.585 46.6257 114.377 46.3535C115.169 46.0814 115.799 45.7969 116.27 45.5C116.764 45.1784 117.173 44.931 117.494 44.7578V34.8125H109.738V26.6113H128.33ZM136.494 49.6934C136.494 48.0605 137.038 46.6999 138.127 45.6113C139.215 44.498 140.688 43.9414 142.543 43.9414C144.398 43.9414 145.87 44.498 146.959 45.6113C148.048 46.6999 148.592 48.0605 148.592 49.6934C148.592 51.3262 148.048 52.6868 146.959 53.7754C145.87 54.8639 144.398 55.4082 142.543 55.4082C140.688 55.4082 139.215 54.8639 138.127 53.7754C137.038 52.6868 136.494 51.3262 136.494 49.6934Z" fill="#01BF71"/>
</svg>
